<?xml version="1.0" standalone="no"?>
<!DOCTYPE svg PUBLIC "-//W3C//DTD SVG 20010904//EN"
 "http://www.w3.org/TR/2001/REC-SVG-20010904/DTD/svg10.dtd">
<svg version="1.0" xmlns="http://www.w3.org/2000/svg"
 width="400.000000pt" height="400.000000pt" viewBox="0 0 400.000000 400.000000"
 preserveAspectRatio="xMidYMid meet">

<g transform="translate(0.000000,400.000000) scale(0.100000,-0.100000)"
fill="#000000" stroke="none">
<path d="M2480 3980 c0 -5 28 -11 63 -12 166 -4 -258 -16 -768 -23 -791 -9
-990 -28 -1163 -111 -161 -77 -278 -175 -370 -311 -93 -137 -130 -244 -162
-473 -9 -65 -29 -1024 -26 -1260 1 -74 -3 -92 -26 -141 -26 -51 -28 -66 -28
-170 1 -183 18 -539 30 -604 34 -191 73 -297 154 -419 98 -147 257 -283 411
-351 109 -48 357 -96 497 -95 l43 0 -60 33 c-275 148 -458 358 -521 597 -26
98 -24 238 5 324 63 192 133 274 396 465 198 144 240 183 379 350 211 255 355
363 540 406 77 19 216 19 281 1 174 -48 344 -176 517 -389 108 -133 196 -219
318 -307 290 -212 373 -296 439 -441 44 -97 54 -161 48 -290 -5 -119 -20 -176
-74 -283 -63 -126 -187 -261 -331 -361 -39 -27 -72 -53 -72 -56 0 -8 66 -19
105 -18 l30 1 -30 8 c-22 5 -2 9 75 15 75 6 97 11 75 16 -21 5 -24 7 -10 9 11
1 29 4 40 6 11 3 37 7 58 11 20 3 37 9 37 14 0 5 7 6 15 3 10 -4 13 -2 10 8
-4 10 4 19 24 27 16 7 53 28 81 46 29 19 60 31 69 28 10 -3 12 -2 5 4 -7 5 17
33 67 78 42 39 78 75 78 81 1 7 8 14 16 18 8 3 15 11 15 18 0 6 9 21 19 32 23
25 102 185 119 241 16 52 43 195 50 265 5 53 6 54 13 20 4 -19 6 19 4 85 -2
85 -1 103 4 60 l8 -60 3 70 c1 39 4 81 5 95 1 14 5 106 10 205 l7 180 -23 20
c-23 20 -24 25 -21 130 2 71 7 104 13 94 7 -11 9 -9 9 8 0 12 4 24 9 28 14 8
7 1008 -8 1130 -38 314 -108 472 -291 655 -184 184 -353 258 -659 289 -134 14
-551 15 -551 1z m-1435 -648 c98 -45 151 -121 142 -205 -9 -96 -80 -147 -207
-147 -109 0 -274 -17 -439 -45 -174 -30 -187 -30 -229 -5 -28 17 -32 25 -32
61 0 77 62 164 175 244 130 93 239 125 415 122 105 -2 133 -6 175 -25z m2310
4 c207 -73 375 -222 375 -333 0 -87 -56 -106 -218 -74 -132 26 -247 38 -422
47 -170 8 -200 15 -239 59 -27 31 -31 43 -31 93 1 109 50 170 173 214 69 24
286 21 362 -6z m93 -867 c72 -25 182 -100 232 -157 54 -63 103 -161 126 -250
16 -63 16 -80 5 -134 -39 -190 -146 -320 -316 -384 -147 -54 -345 -38 -473 39
-71 42 -145 126 -185 207 -27 56 -32 79 -35 161 -4 80 0 108 19 169 42 134
148 259 276 328 101 53 233 61 351 21z m-2544 -18 c95 -46 202 -152 245 -244
34 -72 61 -177 61 -242 0 -56 -31 -163 -64 -219 -82 -140 -261 -236 -439 -236
-260 1 -472 176 -510 421 -20 128 33 276 140 389 66 70 145 123 227 152 40 15
74 18 161 15 101 -2 116 -5 179 -36z m3063 -553 c-3 -7 -5 -2 -5 12 0 14 2 19
5 13 2 -7 2 -19 0 -25z"/>
<path d="M3122 2344 c-71 -19 -99 -34 -160 -89 -33 -30 -63 -70 -84 -113 -31
-62 -33 -73 -33 -167 1 -93 3 -105 33 -163 60 -116 152 -182 287 -205 76 -13
161 1 235 38 60 30 135 112 168 183 23 49 27 70 27 152 0 81 -4 103 -27 152
-81 174 -264 261 -446 212z m3 -125 c29 -26 35 -38 35 -71 0 -67 -44 -118
-101 -118 -52 0 -109 57 -109 110 0 33 28 78 58 94 43 24 78 19 117 -15z"/>
<path d="M678 2341 c-76 -25 -119 -53 -172 -112 -76 -84 -91 -126 -91 -254 0
-100 2 -115 27 -160 42 -79 93 -131 161 -165 158 -77 322 -58 442 51 121 111
153 287 81 444 -73 160 -281 252 -448 196z m-15 -105 c68 -28 88 -109 41 -165
-47 -57 -137 -50 -175 13 -23 38 -24 58 -3 101 10 22 29 39 52 49 46 19 46 19
85 2z"/>
<path d="M1852 1529 c-93 -14 -165 -44 -211 -90 -74 -75 -67 -179 20 -290 39
-50 152 -125 230 -154 l64 -23 5 -152 c3 -84 2 -156 -1 -161 -3 -6 -45 -6
-110 0 -204 20 -344 57 -482 127 -101 51 -144 83 -208 153 -57 62 -70 67 -106
38 -56 -43 96 -209 272 -295 385 -190 1026 -188 1396 5 179 93 320 265 250
303 -35 18 -50 11 -91 -44 -116 -154 -420 -275 -720 -288 l-75 -3 -3 157 -2
156 37 13 c125 40 260 146 308 242 44 89 31 175 -34 230 -86 72 -327 106 -539
76z"/>
<path d="M3425 140 c3 -5 8 -10 11 -10 2 0 4 5 4 10 0 6 -5 10 -11 10 -5 0 -7
-4 -4 -10z"/>
<path d="M2968 33 c7 -3 16 -2 19 1 4 3 -2 6 -13 5 -11 0 -14 -3 -6 -6z"/>
<path d="M3008 33 c6 -2 18 -2 25 0 6 3 1 5 -13 5 -14 0 -19 -2 -12 -5z"/>
</g>
</svg>
