<svg xmlns="http://www.w3.org/2000/svg" viewBox="0 0 512 512" role="img" aria-labelledby="title">
  <title>サクサク数学アイコン</title>
  <defs>
    <linearGradient id="fur" x1="0" x2="0" y1="0" y2="1">
      <stop offset="0" stop-color="#c94b2f"/>
      <stop offset="1" stop-color="#923020"/>
    </linearGradient>
    <radialGradient id="shine" cx="34%" cy="24%" r="70%">
      <stop offset="0" stop-color="#f07a4b" stop-opacity=".52"/>
      <stop offset=".55" stop-color="#c94b2f" stop-opacity=".08"/>
      <stop offset="1" stop-color="#6b302c" stop-opacity=".22"/>
    </radialGradient>
    <filter id="soft" x="-10%" y="-10%" width="120%" height="120%">
      <feDropShadow dx="0" dy="10" stdDeviation="10" flood-color="#6b302c" flood-opacity=".18"/>
    </filter>
  </defs>
  <rect width="512" height="512" rx="104" fill="url(#fur)" filter="url(#soft)"/>
  <rect width="512" height="512" rx="104" fill="url(#shine)"/>
  <path d="M57 185c28-35 66-46 111-42 31 3 56 17 76 40-30 10-60 21-90 35-35 16-68 19-97-33Z" fill="#873323" opacity=".55"/>
  <path d="M455 185c-28-35-66-46-111-42-31 3-56 17-76 40 30 10 60 21 90 35 35 16 68 19 97-33Z" fill="#873323" opacity=".55"/>
  <path d="M90 126c32-34 90-41 119-20 12 9 10 29-4 36-43-2-82 8-117 30-15-9-12-32 2-46Z" fill="#fff1c9"/>
  <path d="M303 106c29-21 87-14 119 20 14 14 17 37 2 46-35-22-74-32-117-30-14-7-16-27-4-36Z" fill="#fff1c9"/>
  <circle cx="155" cy="250" r="72" fill="#fff"/>
  <circle cx="357" cy="250" r="72" fill="#fff"/>
  <circle cx="155" cy="250" r="52" fill="#74321f"/>
  <circle cx="357" cy="250" r="52" fill="#74321f"/>
  <circle cx="173" cy="230" r="18" fill="#fff"/>
  <circle cx="375" cy="230" r="18" fill="#fff"/>
  <path d="M256 222c82 0 149 63 149 141 0 69-66 118-149 118S107 432 107 363c0-78 67-141 149-141Z" fill="#fff0ca"/>
  <ellipse cx="256" cy="322" rx="46" ry="34" fill="#6b302c"/>
  <ellipse cx="256" cy="309" rx="28" ry="10" fill="#8d4a3d" opacity=".55"/>
  <path d="M256 348v45" fill="none" stroke="#6b302c" stroke-width="10" stroke-linecap="round"/>
  <path d="M151 379c35 45 83 58 105 14 22 44 70 31 105-14" fill="none" stroke="#6b302c" stroke-width="12" stroke-linecap="round"/>
</svg>
